<?xml version="1.0" encoding="iso-8859-1"?>
<!-- Uploaded to: SVG Repo, www.svgrepo.com, Generator: SVG Repo Mixer Tools -->
<svg fill="#000000" height="800px" width="800px" version="1.1" id="Layer_1" xmlns="http://www.w3.org/2000/svg" xmlns:xlink="http://www.w3.org/1999/xlink" 
	 viewBox="0 0 512.005 512.005" xml:space="preserve">
<g>
	<g>
		<g>
			<path d="M505.749,473.979l-48.512-48.512c7.509-12.693,12.096-27.285,12.096-43.072c0-47.061-38.272-85.333-85.333-85.333
				s-85.333,38.272-85.333,85.333c0,47.061,38.272,85.333,85.333,85.333c15.787,0,30.379-4.587,43.072-12.096l48.512,48.512
				c4.16,4.16,9.621,6.251,15.083,6.251s10.923-2.091,15.083-6.251C514.091,495.803,514.091,482.321,505.749,473.979z"/>
			<path d="M127.125,254.395c0-35.008,7.637-70.635,20.181-104.704c-26.539-9.771-51.904-22.955-75.392-39.851L52.032,97.851
				C22.997,135.889,4.139,182.353,0,233.062v42.667c4.203,51.499,23.616,98.581,53.44,136.939l17.387-14.421
				c24.064-16.981,49.664-30.123,76.245-39.744C134.677,324.603,127.125,289.19,127.125,254.395z"/>
			<path d="M255.125,126.395c16.491,0,32.789-1.685,48.789-4.629c-14.016-26.709-30.912-51.392-48.789-72.192
				c-17.856,20.8-34.752,45.483-48.768,72.213C222.379,124.731,238.635,126.395,255.125,126.395z"/>
			<path d="M164.245,110.41c16.853-34.048,38.016-65.408,60.779-91.349c-1.6-1.387-3.2-2.901-4.8-4.203
				c-4.203-3.477-6.549-8.256-7.317-13.248c-50.325,7.808-95.851,30.592-131.797,64.021l14.293,8.619
				C117.099,89.823,140.203,101.77,164.245,110.41z"/>
			<path d="M411.166,76.689l13.333-10.667C389.065,34.321,345.118,11.985,296.905,3.11c-1.024,4.437-3.115,8.64-6.891,11.755
				c-1.579,1.301-3.179,2.795-4.779,4.181c22.763,25.963,43.947,57.323,60.8,91.349C368.905,102.182,390.814,91.025,411.166,76.689z
				"/>
			<path d="M163.887,397.672c-23.595,8.256-46.187,19.691-67.136,34.432l-14.485,12.032c43.157,39.701,99.861,64.299,162.155,65.941
				C214.362,480.787,185.498,441.533,163.887,397.672z"/>
			<path d="M206.159,386.596c19.541,37.397,44.757,70.784,70.293,95.168v-99.371h-23.659
				C237.028,382.393,221.476,383.908,206.159,386.596z"/>
			<path d="M383.125,254.126c0,0.107-0.064,0.171-0.064,0.277h0.064v21.333h106.667c11.797,0,21.333-9.557,21.333-21.333
				c0-58.859-21.547-113.728-56.981-157.504L436.8,110.788c-23.296,16.405-48.085,29.227-73.856,38.763
				C375.467,183.598,383.125,219.182,383.125,254.126z"/>
			<path d="M340.459,254.395h0.064c0-0.107-0.064-0.171-0.064-0.277c0-30.549-7.083-62.123-18.581-92.416
				c-21.824,4.779-44.117,7.36-66.752,7.36c-22.656,0-44.971-2.581-66.731-7.339c-11.499,30.379-18.603,62.016-18.603,92.672
				c0,30.528,7.04,62.016,18.453,92.267c21.141-4.48,42.688-6.933,64.555-6.933h23.659v-64h64V254.395z"/>
		</g>
	</g>
</g>
</svg>